<svg width="150" height="108" viewBox="0 0 150 108" fill="none" xmlns="http://www.w3.org/2000/svg">
<rect y="20" width="128" height="88" rx="10" fill="#94BFF0"/>
<rect x="12" y="33" width="104" height="64" rx="5" fill="white"/>
<rect x="20" y="44" width="27" height="43" rx="5" fill="#E0EAF7"/>
<rect x="50" y="44" width="27" height="43" rx="5" fill="#E0EAF7"/>
<rect x="80" y="44" width="27" height="43" rx="5" fill="#E0EAF7"/>
<path d="M138.612 0H81C85.5433 0.376782 89.0388 4.17419 89.0388 8.73311V88L96.4078 83.3333L107.796 88L118.515 83.3333L129.903 88L138.612 83.3333L150 88V12.6667C150 2.53333 142.408 0 138.612 0Z" fill="url(#paint0_linear_205_77)"/>
<g opacity="0.8">
<path d="M101 28C101 26.8954 101.895 26 103 26H138C139.105 26 140 26.8954 140 28C140 29.1046 139.105 30 138 30H103C101.895 30 101 29.1046 101 28Z" fill="#E0EAF7"/>
<path d="M101 35C101 33.8954 101.895 33 103 33H138C139.105 33 140 33.8954 140 35C140 36.1046 139.105 37 138 37H103C101.895 37 101 36.1046 101 35Z" fill="#E0EAF7"/>
<path d="M101 42C101 40.8954 101.895 40 103 40H138C139.105 40 140 40.8954 140 42C140 43.1046 139.105 44 138 44H103C101.895 44 101 43.1046 101 42Z" fill="#E0EAF7"/>
<path d="M101 49C101 47.8954 101.895 47 103 47H127C128.105 47 129 47.8954 129 49C129 50.1046 128.105 51 127 51H103C101.895 51 101 50.1046 101 49Z" fill="#E0EAF7"/>
</g>
<circle cx="87.5" cy="32.5" r="18.5" fill="#2A598D"/>
<path d="M81 32.5C81 31.8269 81.5457 31.2812 82.2188 31.2812H92.7812C93.4543 31.2812 94 31.8269 94 32.5C94 33.1731 93.4543 33.7188 92.7812 33.7188H82.2188C81.5457 33.7188 81 33.1731 81 32.5Z" fill="white"/>
<path d="M87.5 26C88.1731 26 88.7188 26.5457 88.7188 27.2188L88.7187 37.7812C88.7187 38.4543 88.1731 39 87.5 39C86.8269 39 86.2812 38.4543 86.2812 37.7812L86.2812 27.2187C86.2813 26.5457 86.8269 26 87.5 26Z" fill="white"/>
<defs>
<linearGradient id="paint0_linear_205_77" x1="115.5" y1="0" x2="115.5" y2="88" gradientUnits="userSpaceOnUse">
<stop stop-color="#83ACDB"/>
<stop offset="0.125" stop-color="#DDEDFF"/>
<stop offset="1" stop-color="#4A77AA"/>
</linearGradient>
</defs>
</svg>
